<svg id="Capa_1" data-name="Capa 1" xmlns="http://www.w3.org/2000/svg" viewBox="0 0 106 30"><defs><style>.cls-1,.cls-2{fill:#fff;}.cls-2{fill-rule:evenodd;}</style></defs><title>logo-white</title><path class="cls-1" d="M34.24,13.21h8.52v5.1H35.94v3.4h-1.7Zm6.82,1.7H35.94v1.7h5.12Zm13.65-1.7h8.53v8.5H54.71Zm1.7,1.7V20h5.12v-5.1Zm39.24,1.7h6.82v-1.7H95.65v-1.7h8.53v8.5H95.65Zm6.82,1.7H97.36V20h5.11Zm-17,1.7h.9l2.25-2.54-2.26-2.56h-.89v-1.7H87l2.67,3,2.65-3h1.6v1.7h-.88l-2.27,2.56L93.06,20h.88v1.7h-1.6l-2.65-3-2.67,3h-1.6Zm-10.24-6.8h8.53v5.1H76.89V20h6.82v1.7H75.18ZM82,14.91H76.89v1.7H82Zm-8.53,0H70.06v6.8h-1.7v-6.8H64.94v-1.7h8.53Zm-29-1.7H53v5.1H50.6L52.11,20H53v1.7H51.4l-3-3.4h-2.2v3.4H44.47Zm6.82,1.7H46.18v1.7h5.11Zm0-10.19H46.18v1.7h5.11ZM44.47,3H53V8.11H50.6l1.51,1.7H53v1.7H51.4l-3-3.4h-2.2v3.41H44.47Zm32.42,1.7V9.81H82V4.72ZM75.18,3h8.53v8.49H75.18ZM54.71,3h1.7V9.81h5.12V3h1.71v8.49H54.71Zm17.06,1.7H66.65v1.7h5.12ZM64.94,3h8.53V8.11H66.65v3.41H64.94ZM34.24,3h8.52v1.7H35.94V9.81h5.12V8.11H37.65V6.42h5.11v5.1H34.24Z"/><path class="cls-1" d="M12.37,29.5H7.09V24.29l5.28.55ZM30.82.5V24.23h-29V19H7.09V.5ZM12.37,5.77V19H25.55V5.77Z"/><path class="cls-2" d="M15,12.36a4,4,0,1,1,4,4A4,4,0,0,1,15,12.36Z"/></svg>