<svg id="Capa_1" data-name="Capa 1" xmlns="http://www.w3.org/2000/svg" viewBox="0 0 167 47"><defs><style>.cls-1{fill:#1a1a1d;}.cls-2,.cls-3{fill:#fbc81a;}.cls-3{fill-rule:evenodd;}</style></defs><title>logo</title><path class="cls-1" d="M54.13,20.7H67.48v8H56.81V34H54.13Zm10.68,2.66h-8V26h8ZM86.17,20.7H99.52V34H86.17Zm2.67,2.66v8h8v-8ZM150.25,26h10.67V23.36H150.25V20.7h13.34V34H150.25Zm10.67,2.66h-8v2.66h8Zm-26.69,2.66h1.41l3.53-4-3.54-4h-1.4V20.7h2.5l4.18,4.69,4.16-4.69h2.51v2.66h-1.39l-3.56,4,3.56,4h1.39V34h-2.51l-4.16-4.68L136.73,34h-2.5Zm-16-10.64h13.35v8H120.88v2.66h10.68V34H118.21Zm10.68,2.66h-8V26h8Zm-13.35,0H110.2V34h-2.67V23.36h-5.34V20.7h13.35ZM70.15,20.7H83.5v8H79.74l2.37,2.66H83.5V34H81l-4.73-5.32H72.82V34H70.15Zm10.68,2.66h-8V26h8Zm0-15.95h-8v2.66h8ZM70.15,4.75H83.5v8H79.74l2.37,2.65H83.5v2.67H81l-4.73-5.32H72.82v5.32H70.15Zm50.73,2.66v8h8v-8Zm-2.67-2.66h13.35v13.3H118.21Zm-32,0h2.67V15.38h8V4.75h2.67v13.3H86.17Zm26.7,2.66h-8v2.66h8ZM102.19,4.75h13.35v8H104.86v5.32h-2.67Zm-48.06,0H67.48V7.41H56.81v8h8V12.73H59.47V10.07h8v8H54.13Z"/><path class="cls-2" d="M19.91,46.19H11.66V38l8.25.86ZM48.79.81V37.94H3.41V29.69h8.25V.81ZM19.91,9.06V29.69H40.54V9.06Z"/><path class="cls-3" d="M24,19.38a6.19,6.19,0,1,1,6.18,6.18A6.17,6.17,0,0,1,24,19.38Z"/></svg>